<?xml version="1.0" encoding="UTF-8"?><svg id="Layer_1" xmlns="http://www.w3.org/2000/svg" viewBox="0 0 1373.78 417.43"><defs><style>.cls-1{fill:#0150c2;}.cls-2{fill:#fcfcfd;}.cls-3{fill:#ff570a;}.cls-4{fill:#fdfefe;}.cls-5{fill:#cc3b09;}.cls-6{stroke:#05033f;stroke-miterlimit:10;stroke-width:6px;}.cls-6,.cls-7{fill:#19297c;}.cls-7{font-family:nuixyber, nuixyber;font-size:60px;letter-spacing:.2em;}</style></defs><g><g><path class="cls-3" d="M0,99.74v-30.39c0-12.84,3.42-17.12,16.27-20.55l51.37-14.13V99.74h70.63l-5.14,37.24c-1.71,11.99-7.71,17.12-20.12,17.12h-45.37v89.89c0,20.55,10.27,31.68,35.1,31.68h16.69c12.41,0,18.41,5.14,20.12,17.12l5.14,37.24h-49.66C31.25,330.04,0,300.07,0,245.28v-91.18"/><path class="cls-3" d="M169.51,249.56c0-42.81,24.4-64.21,72.34-64.21h83.9v-12.41c.43-15.84-6.85-21.83-22.26-21.83h-96.31c-12.41,0-17.98-5.14-19.69-17.12l-5.56-37.24h116c74.05,0,95.46,29.96,95.46,81.76v147.68h-38.95c-10.7,0-14.55-2.57-17.55-11.13l-4.28-13.7h-1.71c-10.27,18.41-31.68,28.68-60.36,28.68h-28.68c-44.95,0-72.34-18.83-72.34-63.35v-17.12Zm111.72,27.82c30.82,0,44.52-10.27,44.52-32.1v-13.27h-70.63c-12.84,0-17.98,4.28-17.98,16.27v12.41c0,11.99,5.14,16.69,17.98,16.69h26.11Z"/><path class="cls-3" d="M648.08,326.19h-110.01c-70.63,0-103.16-29.96-103.16-88.61v-52.22c0-58.64,32.53-88.61,103.16-88.61h110.01l-5.14,37.24c-1.71,11.99-7.71,17.12-20.12,17.12h-83.04c-28.25,0-39.38,10.27-39.38,34.24v51.8c0,24.4,11.13,34.67,39.38,34.67h83.04c12.41,0,18.41,5.14,20.12,17.12l5.14,37.24Z"/><path class="cls-3" d="M680.6,13.27h67.63V190.06l70.2-80.9c8.13-9.85,13.27-11.99,26.97-11.99h70.63l-92.89,103.59q-3.42,3.85,0,7.71l97.6,117.72h-68.49c-13.7,0-19.26-2.14-27.4-12.41l-76.62-94.17v106.59h-67.63V13.27Z"/><path class="cls-3" d="M947.71,13.27h67.63V326.19h-67.63V13.27Z"/><path class="cls-3" d="M1057.72,183.21c0-59.07,32.96-90.32,103.16-90.32h23.54c70.2,0,103.59,31.25,103.59,90.32v31.68c0,12.41-5.99,18.41-19.26,18.41h-145.54v3.85c0,24.4,11.56,34.67,39.38,34.67h92.46c12.41,0,18.41,5.14,20.12,17.12l5.14,37.24h-119.43c-70.63,0-103.16-29.96-103.16-88.61v-54.36Zm166.09,4.71v-5.56c0-25.26-10.7-35.1-40.24-35.1h-20.12c-29.54,0-40.24,9.85-40.24,35.1v5.56h100.59Z"/></g><g><path class="cls-6" d="M131.41,265.4h-16.69c-24.83,0-35.1-11.13-35.1-31.68v-89.89h45.37c12.41,0,18.41-5.14,20.12-17.12l5.14-37.24H79.62V24.4l-51.37,14.13c-12.84,3.42-16.27,7.71-16.27,20.55V235.01c0,54.79,31.25,84.76,95.03,84.76h49.66l-5.14-37.24c-1.71-11.99-7.71-17.12-20.12-17.12Z"/><path class="cls-6" d="M309.91,86.47h-116l5.56,37.24c1.71,11.99,7.28,17.12,19.69,17.12h96.31c15.41,0,22.69,5.99,22.26,21.83v12.41h-83.9c-47.94,0-72.34,21.4-72.34,64.21v17.12c0,44.52,27.4,63.35,72.34,63.35h28.68c28.68,0,50.08-10.27,60.36-28.68h1.71l4.28,13.7c3,8.56,6.85,11.13,17.55,11.13h38.95V168.23c0-51.8-21.4-81.76-95.46-81.76Zm27.82,148.54c0,21.83-13.7,32.1-44.52,32.1h-26.11c-12.84,0-17.98-4.71-17.98-16.69v-12.41c0-11.99,5.14-16.27,17.98-16.27h70.63v13.27Z"/><path class="cls-6" d="M551.76,140.84h83.04c12.41,0,18.41-5.14,20.12-17.12l5.14-37.24h-110.01c-70.63,0-103.16,29.96-103.16,88.61v52.22c0,58.64,32.53,88.61,103.16,88.61h110.01l-5.14-37.24c-1.71-11.99-7.71-17.12-20.12-17.12h-83.04c-28.25,0-39.38-10.27-39.38-34.67v-51.8c0-23.97,11.13-34.24,39.38-34.24Z"/><path class="cls-6" d="M835.13,190.49l92.89-103.59h-70.63c-13.7,0-18.83,2.14-26.97,11.99l-70.2,80.9V3h-67.63V315.91h67.63v-106.59l76.62,94.17c8.13,10.27,13.7,12.41,27.4,12.41h68.49l-97.6-117.72q-3.42-3.85,0-7.71Z"/><rect class="cls-6" x="959.7" y="3" width="67.63" height="312.91"/><path class="cls-6" d="M1196.41,82.62h-23.54c-70.2,0-103.16,31.25-103.16,90.32v54.36c0,58.64,32.53,88.61,103.16,88.61h119.43l-5.14-37.24c-1.71-11.99-7.71-17.12-20.12-17.12h-92.46c-27.82,0-39.38-10.27-39.38-34.67v-3.85h145.54c13.27,0,19.26-5.99,19.26-18.41v-31.68c0-59.07-33.39-90.32-103.59-90.32Zm39.38,95.03h-100.59v-5.56c0-25.26,10.7-35.1,40.24-35.1h20.12c29.54,0,40.24,9.85,40.24,35.1v5.56Z"/></g><g><circle class="cls-4" cx="1346.08" cy="46.36" r="20.62"/><path class="cls-3" d="M1330.66,9.54h6.25c.08,.19,.25,.14,.4,.15,6.06,.54,11.74,2.29,16.91,5.48,10.67,6.57,17.08,16.05,19.12,28.44,.15,.93,.11,1.9,.44,2.8v6.25c-.36,1.04-.25,2.15-.52,3.2-.57-.37-1-.91-1.48-1.38-2.06-2.02-4.11-4.06-6.17-6.09-.18-.27-.47-.39-.73-.56-.91-.59-1.9-1.04-2.75-1.73-.08-.05-.16-.11-.24-.16v.02c-.01-.36-.29-.53-.51-.75-5.32-5.32-10.64-10.65-15.96-15.97-.2-.2-.38-.43-.67-.53-.09-.23-.31-.26-.5-.33-1.03-.42-2.07-.81-3.08-1.29-.58-.27-.78-.1-.99,.44-1.39,3.46-2.82,6.89-4.2,10.35-.76,1.89-1.64,3.74-2.25,5.69-.25,.53-.51,1.07-.76,1.6-.18-.15-.36-.3-.53-.45-2.95-2.73-5.71-5.65-8.59-8.45-.24-.23-.51-.44-.76-.65-.37-.03-.62,.24-.9,.41-6.29,3.8-12.56,7.64-18.89,11.38-1.04,.62-1.51,1.25-1.34,2.43,.08,.57-.13,1.21,.52,1.58,.07,.04,.13,.08,.2,.13l-.02-.02c.07,.13,.17,.2,.32,.18v-.03c-.04,.47,.36,.67,.62,.93,11.91,11.92,23.82,23.83,35.74,35.75,.22,.22,.43,.45,.64,.68-1.07,.26-2.2,.16-3.26,.5h-6.25c-.67-.33-1.4-.25-2.1-.35-8.69-1.26-16.24-4.88-22.52-11.03-6.4-6.26-10.29-13.84-11.66-22.7-.14-.88-.08-1.8-.44-2.64v-6.72c.24-.09,.15-.3,.17-.47,.17-1.29,.34-2.57,.58-3.85,3.15-16.43,16.74-29.4,33.32-31.81,.93-.14,1.9-.1,2.8-.44Z"/><path class="cls-5" d="M1373.26,55.86c-.62,4.38-2,8.52-4.12,12.39-6.11,11.13-15.41,17.98-27.83,20.62-.43,.09-.87,.12-1.31,.18-.21-.23-.42-.46-.64-.68-11.91-11.91-23.83-23.83-35.74-35.75-.26-.26-.66-.46-.63-.93,.27,.14,.56,.27,.82,.43,6.17,3.67,12.33,7.34,18.49,11.01,.76,.45,.76,.45,.76-.4,0-1.51-.03-3.02,.02-4.53,.02-.58-.2-.87-.68-1.16-3.86-2.31-7.7-4.65-11.54-6.98-.28-.17-.62-.26-.78-.61,4.14-2.57,8.27-5.14,12.4-7.69,.43-.26,.61-.53,.6-1.05-.03-1.69,0-3.38,.01-5.07,.25,.22,.52,.42,.76,.65,2.88,2.8,5.64,5.72,8.59,8.45,.17,.16,.35,.3,.53,.45-.08,.24-.16,.49-.25,.73-3.24,7.96-6.49,15.91-9.75,23.86-.21,.51-.22,.76,.37,.96,1,.35,1.99,.75,2.95,1.2,.53,.25,.71,.15,.93-.39,2.19-5.41,4.41-10.82,6.62-16.22,.07-.17,.15-.33,.22-.5,3.56-8.7,7.12-17.4,10.67-26.1,.28,.1,.46,.33,.67,.53,5.32,5.32,10.64,10.64,15.96,15.97,.22,.22,.5,.4,.52,.75-.23-.12-.47-.22-.69-.35-5.32-3.21-10.64-6.42-15.97-9.63-.23-.14-.47-.47-.74-.3-.21,.13-.08,.48-.08,.73,0,1.41,.02,2.81-.02,4.22-.01,.53,.15,.83,.61,1.11,3.88,2.38,7.74,4.79,11.61,7.19,.27,.17,.53,.36,.86,.57-.28,.18-.46,.32-.66,.44-3.94,2.38-7.87,4.77-11.82,7.14-.44,.26-.61,.53-.59,1.04,.04,1.51,0,3.02,.02,4.53,0,.25-.13,.59,.09,.73,.24,.16,.47-.14,.68-.27,6.22-3.69,12.41-7.42,18.67-11.03,1.32-.76,2.01-1.56,1.71-3.08-.04-.2,.02-.41,.04-.62,2.06,2.03,4.11,4.06,6.17,6.09,.48,.47,.91,1.01,1.48,1.38Z"/><path class="cls-2" d="M1323.11,35.63c0,1.69-.04,3.38-.01,5.07,0,.51-.17,.78-.6,1.05-4.14,2.55-8.26,5.12-12.4,7.69,.16,.35,.51,.44,.78,.61,3.84,2.33,7.69,4.67,11.54,6.98,.48,.29,.69,.58,.68,1.16-.04,1.51-.01,3.02-.02,4.53,0,.85,0,.85-.76,.4-6.16-3.67-12.33-7.34-18.49-11.01-.27-.16-.55-.29-.82-.43,0,0,0,.03,0,.03-.05-.16-.17-.21-.32-.18,0,0,.02,.02,.02,.02,0-.15-.09-.16-.2-.13-.65-.37-.44-1.01-.52-1.58-.17-1.18,.3-1.82,1.34-2.43,6.33-3.74,12.59-7.58,18.89-11.38,.28-.17,.53-.44,.9-.41Z"/><path class="cls-2" d="M1333.75,43.58c.01,3.58,.02,7.16,.03,10.74,0,.34-.05,.68,.09,1-2.21,5.41-4.43,10.81-6.62,16.22-.22,.54-.4,.64-.93,.39-.96-.45-1.95-.86-2.95-1.2-.59-.2-.58-.45-.37-.96,3.26-7.95,6.5-15.91,9.75-23.86,.1-.24,.17-.49,.25-.73,.25-.53,.51-1.07,.76-1.6Z"/><path class="cls-1" d="M1302.69,51.54c.16-.03,.27,.02,.32,.18-.15,.02-.25-.05-.32-.18Z"/><path class="cls-1" d="M1362.14,46.11c-.11,0-.22-.03-.24-.16,.08,.05,.16,.11,.24,.16Z"/><path class="cls-1" d="M1302.51,51.44c.11-.03,.2-.02,.2,.13-.07-.04-.14-.08-.2-.13Z"/></g></g><text class="cls-7" transform="translate(454.1 406.33)"><tspan x="0" y="0" xml:space="preserve">TECHNOLOGIES  LIMITED</tspan></text></svg>